# xmcd
#
# Track frame offsets:
#	150
#	22871
#	36150
#	55010
#	76394
#	93372
#	110173
#	127125
#	147629
#	165769
#	185584
#	206030
#	227552
#	246376
#	267466
#	287212
#	303191
#	321290
#	337045
#
# Disc length: 4755 seconds
#
# Revision: 0
# Processed by: cddbd v1.5.1PL2 Copyright (c) Steve Scherf et al.
# Submitted via: EasyCDDAExtractor 9.0.0.1
#
DISCID=19129113
DTITLE=A-HA - Collection 2000
DYEAR=2000
DGENRE=Pop
TTITLE0=The Sun Always Shines On TV
TTITLE1=Early Morning
TTITLE2=Move To Memphis
TTITLE3=Manhattan Sky Line
TTITLE4=Hunting High And Low
TTITLE5=You Are The One
TTITLE6=Take On Me
TTITLE7=Touchy
TTITLE8=Cry Wolf
TTITLE9=Lie Down On Darkness
TTITLE10=Memorial Beach
TTITLE11=I Call Your Name
TTITLE12=The Living Daylights
TTITLE13=Stay On These Roads
TTITLE14=I've Been Losing You
TTITLE15=We're Looking For The Whales
TTITLE16=The Blood That Moves The Body
TTITLE17=Here I Stand And Face The Rain
TTITLE18=Crying In The Rain
EXTD=
EXTT0=
EXTT1=
EXTT2=
EXTT3=
EXTT4=
EXTT5=
EXTT6=
EXTT7=
EXTT8=
EXTT9=
EXTT10=
EXTT11=
EXTT12=
EXTT13=
EXTT14=
EXTT15=
EXTT16=
EXTT17=
EXTT18=
PLAYORDER=
